<?xml version="1.0" encoding="UTF-8"?>
<svg xmlns="http://www.w3.org/2000/svg" xmlns:xlink="http://www.w3.org/1999/xlink" width="48pt" height="48pt" viewBox="0 0 48 48" version="1.1">
<g id="surface9625122">
<path style=" stroke:none;fill-rule:nonzero;fill:rgb(92.54902%,92.54902%,92.54902%);fill-opacity:1;" d="M 37 45 L 11 45 C 9.34375 45 8 43.65625 8 42 L 8 6 C 8 4.34375 9.34375 3 11 3 L 30 3 L 40 13 L 40 42 C 40 43.65625 38.65625 45 37 45 Z M 37 45 "/>
<path style=" stroke:none;fill-rule:nonzero;fill:rgb(94.901961%,94.901961%,94.901961%);fill-opacity:1;" d="M 40 13 L 30 13 L 30 3 Z M 40 13 "/>
<path style=" stroke:none;fill-rule:nonzero;fill:rgb(74.901961%,73.72549%,73.72549%);fill-opacity:1;" d="M 30 13 L 40 23 L 40 13 Z M 30 13 "/>
<path style=" stroke:none;fill-rule:nonzero;fill:rgb(66.27451%,66.666667%,68.235294%);fill-opacity:1;" d="M 15 23 L 33 23 L 33 25 L 15 25 Z M 15 27 L 33 27 L 33 29 L 15 29 Z M 15 31 L 33 31 L 33 33 L 15 33 Z M 15 35 L 25 35 L 25 37 L 15 37 Z M 15 35 "/>
</g>
</svg>
