<?xml version="1.0" encoding="UTF-8"?>
<svg xmlns="http://www.w3.org/2000/svg" xmlns:xlink="http://www.w3.org/1999/xlink" width="96pt" height="96pt" viewBox="0 0 96 96" version="1.1">
<g id="surface9624415">
<path style=" stroke:none;fill-rule:nonzero;fill:rgb(92.54902%,92.54902%,92.54902%);fill-opacity:1;" d="M 74 90 L 22 90 C 18.6875 90 16 87.3125 16 84 L 16 12 C 16 8.6875 18.6875 6 22 6 L 60 6 L 80 26 L 80 84 C 80 87.3125 77.3125 90 74 90 Z M 74 90 "/>
<path style=" stroke:none;fill-rule:nonzero;fill:rgb(94.901961%,94.901961%,94.901961%);fill-opacity:1;" d="M 80 26 L 60 26 L 60 6 Z M 80 26 "/>
<path style=" stroke:none;fill-rule:nonzero;fill:rgb(74.901961%,73.72549%,73.72549%);fill-opacity:1;" d="M 60 26 L 80 46 L 80 26 Z M 60 26 "/>
<path style=" stroke:none;fill-rule:nonzero;fill:rgb(66.27451%,66.666667%,68.235294%);fill-opacity:1;" d="M 30 46 L 66 46 L 66 50 L 30 50 Z M 30 54 L 66 54 L 66 58 L 30 58 Z M 30 62 L 66 62 L 66 66 L 30 66 Z M 30 70 L 50 70 L 50 74 L 30 74 Z M 30 70 "/>
</g>
</svg>
